# xmcd CD database file
#
# Track frame offsets:
#	150
#	14092
#	30270
#	40722
#	54577
#	67862
#	82712
#	95032
#	111680
#	127025
#	140595
#
# Disc length: 2065 seconds
#
# Revision: 1
# Processed by: cddbd v1.5.2PL0 Copyright (c) Steve Scherf et al.
# Submitted via: CDex 1.70beta3
#
DISCID=92080f0b
DTITLE=Salvador Trio - Tristeza
DYEAR=1966
DGENRE=Jazz
TTITLE0=Tristeza
TTITLE1=Índio Perdido
TTITLE2=Eu Compro Essa Mulher
TTITLE3=Vou Dizer-Te Adeus
TTITLE4=Um Sonho Azul
TTITLE5=Sambório
TTITLE6=Balanço Do Mar-Onda Quebrando
TTITLE7=Fred's Ahead
TTITLE8=Iluminando O Vazio
TTITLE9=A Canção Do Amôr Que Nasceu
TTITLE10=Sonho De Carnaval
EXTD=YEAR: 1966
EXTT0=
EXTT1=
EXTT2=
EXTT3=
EXTT4=
EXTT5=
EXTT6=
EXTT7=
EXTT8=
EXTT9=
EXTT10=
PLAYORDER=
